<svg id="_x33_0" enable-background="new 0 0 64 64" height="512" viewBox="0 0 64 64" width="512" xmlns="http://www.w3.org/2000/svg"><path d="m20.435 33-15.31 15.093c-1.371 1.35-2.125 3.146-2.125 5.054s.754 3.704 2.125 5.055l1.786 1.762c.668.658 1.594 1.036 2.54 1.036 1.977 0 3.585-1.579 3.585-3.521 0-.853.326-1.629.894-2.188l14.076-13.879-.006-8.412zm5.565 3c0 2.178-.817 4.253-2.301 5.844l-12.323 13.211c-.615.618-1.403.945-2.241.945s-1.625-.327-2.218-.921c-1.205-1.208-1.233-3.128-.066-4.372l12.406-13.22c1.485-1.581 3.577-2.487 5.743-2.487h1z"/><path d="m8.31 52.076c-.425.452-.414 1.151.024 1.591.429.43 1.175.43 1.604 0l12.299-13.188c.883-.947 1.458-2.118 1.671-3.376-1.212.231-2.337.842-3.192 1.753z"/><path d="m45.636 9.778-21.222 21.222h5.586v6.236c1.318-.461 2.804-.312 4 .479v-4.13l27-27v-3.564c-5.806.246-11.229 2.623-15.364 6.757z"/><path d="m36 39.586 1 1 19.899-19.899c2.644-2.645 4.101-6.161 4.101-9.9v-1.373l-25 25z"/></svg>